<svg xmlns="http://www.w3.org/2000/svg" xmlns:xlink="http://www.w3.org/1999/xlink" width="500" zoomAndPan="magnify" viewBox="0 0 375 374.999991" height="500" preserveAspectRatio="xMidYMid meet" version="1.0"><defs><g/></defs><g fill="#ff328f" fill-opacity="1"><g transform="translate(179.616323, 242.607831)"><g><path d="M 41.375 -88.078125 C 45.9375 -93.109375 50.835938 -97.890625 56.078125 -102.421875 C 61.273438 -106.972656 66.375 -110.695312 71.375 -113.59375 C 73.46875 -114.832031 75.800781 -115.96875 78.375 -117 C 80.914062 -117.988281 83.316406 -118.222656 85.578125 -117.703125 C 88.128906 -117.054688 91.835938 -114.257812 96.703125 -109.3125 C 101.515625 -104.351562 102.113281 -100.25 98.5 -97 C 97.507812 -96.082031 96.40625 -95.3125 95.1875 -94.6875 C 93.957031 -94 92.785156 -93.34375 91.671875 -92.71875 C 85.109375 -89.039062 79.273438 -85.171875 74.171875 -81.109375 C 69.015625 -77.023438 64.109375 -72.539062 59.453125 -67.65625 C 62.296875 -65.207031 66.140625 -61.757812 70.984375 -57.3125 C 75.785156 -52.875 80.671875 -48.328125 85.640625 -43.671875 C 90.578125 -38.960938 95.125 -34.539062 99.28125 -30.40625 C 103.375 -26.269531 106.144531 -23.300781 107.59375 -21.5 C 110.863281 -17.175781 109.617188 -12.632812 103.859375 -7.875 C 98.035156 -3.09375 93.734375 -0.546875 90.953125 -0.234375 C 88.253906 0.078125 84.675781 -1.351562 80.21875 -4.53125 C 75.726562 -7.6875 71.160156 -11.453125 66.515625 -15.828125 C 61.816406 -20.160156 57.484375 -24.535156 53.515625 -28.953125 C 49.523438 -33.378906 46.75 -36.703125 45.1875 -38.921875 C 44.46875 -39.796875 43.875 -40.863281 43.40625 -42.125 C 44.8125 -31.789062 46.84375 -22.691406 49.5 -14.828125 C 49.914062 -13.515625 50.40625 -12.148438 50.96875 -10.734375 C 51.46875 -9.265625 51.742188 -7.832031 51.796875 -6.4375 C 51.910156 -3.882812 50.726562 -2.03125 48.25 -0.875 C 45.769531 0.320312 42.847656 1.03125 39.484375 1.25 C 36.148438 1.519531 32.84375 1.410156 29.5625 0.921875 C 26.257812 0.472656 23.921875 -0.132812 22.546875 -0.90625 C 20.023438 -2.144531 18.097656 -4.148438 16.765625 -6.921875 C 15.390625 -9.628906 14.328125 -12.234375 13.578125 -14.734375 C 11.984375 -19.660156 10.726562 -25.96875 9.8125 -33.65625 C 8.820312 -41.300781 8.160156 -49.203125 7.828125 -57.359375 C 7.515625 -65.515625 7.53125 -73.394531 7.875 -81 C 8.21875 -88.53125 8.914062 -94.664062 9.96875 -99.40625 C 10.9375 -103.632812 12.101562 -107 13.46875 -109.5 C 14.644531 -111.519531 16.097656 -112.929688 17.828125 -113.734375 C 19.890625 -114.648438 22.367188 -115.234375 25.265625 -115.484375 C 28.078125 -115.691406 30.628906 -115.710938 32.921875 -115.546875 C 36.179688 -115.253906 38.765625 -114.457031 40.671875 -113.15625 C 42.566406 -111.832031 43.285156 -109.140625 42.828125 -105.078125 C 42.085938 -99.660156 41.601562 -93.992188 41.375 -88.078125 Z M 41.375 -88.078125 "/></g></g></g><g fill="#5d3eff" fill-opacity="1"><g transform="translate(68.045294, 243.008655)"><g><path d="M 70.875 -76.84375 C 74.34375 -86.789062 77.53125 -93.984375 80.4375 -98.421875 C 81.550781 -100.046875 82.722656 -101.675781 83.953125 -103.3125 C 85.179688 -104.945312 86.457031 -106.425781 87.78125 -107.75 C 88.445312 -108.363281 89.109375 -108.898438 89.765625 -109.359375 C 90.734375 -110.078125 92.421875 -110.816406 94.828125 -111.578125 C 96.859375 -112.035156 99.148438 -112.394531 101.703125 -112.65625 C 104.203125 -112.851562 106.5 -112.671875 108.59375 -112.109375 C 110.332031 -111.648438 111.96875 -110.582031 113.5 -108.90625 C 115.539062 -106.601562 117.425781 -103.617188 119.15625 -99.953125 C 121.300781 -95.710938 123.492188 -90.097656 125.734375 -83.109375 C 127.929688 -76.117188 129.945312 -68.796875 131.78125 -61.140625 C 133.570312 -53.492188 135.050781 -46.046875 136.21875 -38.796875 C 137.34375 -31.503906 137.828125 -25.457031 137.671875 -20.65625 C 137.671875 -18.207031 137.441406 -15.632812 136.984375 -12.9375 C 136.472656 -10.175781 135.300781 -8.003906 133.46875 -6.421875 C 131.375 -4.585938 126.601562 -3.035156 119.15625 -1.765625 C 111.65625 -0.429688 107.34375 -2.21875 106.21875 -7.125 C 105.96875 -8.445312 105.894531 -9.820312 106 -11.25 C 106.09375 -12.625 106.140625 -13.976562 106.140625 -15.3125 C 106.453125 -24.1875 105.765625 -33.957031 104.078125 -44.625 C 102.398438 -55.226562 100.820312 -62.597656 99.34375 -66.734375 C 97.851562 -70.867188 95.734375 -69.441406 92.984375 -62.453125 C 90.234375 -55.460938 87.988281 -47.523438 86.25 -38.640625 C 84.46875 -29.710938 83.164062 -23.898438 82.34375 -21.203125 C 81.53125 -18.441406 77.601562 -17.0625 70.5625 -17.0625 C 63.519531 -17.007812 59.566406 -18.363281 58.703125 -21.125 C 57.828125 -23.820312 56.242188 -29.738281 53.953125 -38.875 C 51.660156 -47.957031 49.492188 -55.867188 47.453125 -62.609375 C 45.359375 -69.335938 43.546875 -70.632812 42.015625 -66.5 C 40.484375 -62.320312 38.851562 -54.898438 37.125 -44.234375 C 35.382812 -33.566406 34.691406 -23.796875 35.046875 -14.921875 C 34.992188 -13.597656 35.046875 -12.25 35.203125 -10.875 C 35.304688 -9.4375 35.203125 -8.054688 34.890625 -6.734375 C 33.773438 -1.835938 29.335938 0 21.578125 -1.21875 C 13.828125 -2.445312 8.851562 -3.976562 6.65625 -5.8125 C 4.71875 -7.34375 3.492188 -9.488281 2.984375 -12.25 C 2.472656 -14.945312 2.21875 -17.519531 2.21875 -19.96875 C 2.113281 -24.769531 2.648438 -30.816406 3.828125 -38.109375 C 5.003906 -45.410156 6.535156 -52.882812 8.421875 -60.53125 C 10.304688 -68.1875 12.421875 -75.535156 14.765625 -82.578125 C 17.066406 -89.566406 19.3125 -95.203125 21.5 -99.484375 C 23.289062 -103.160156 25.234375 -106.144531 27.328125 -108.4375 C 28.898438 -110.175781 30.632812 -111.273438 32.53125 -111.734375 C 34.664062 -112.296875 37.0625 -112.472656 39.71875 -112.265625 C 42.320312 -112.066406 44.671875 -111.765625 46.765625 -111.359375 C 49.265625 -110.585938 51 -109.867188 51.96875 -109.203125 C 52.675781 -108.742188 53.390625 -108.210938 54.109375 -107.609375 C 55.429688 -106.273438 56.734375 -104.816406 58.015625 -103.234375 C 59.285156 -101.609375 60.535156 -99.976562 61.765625 -98.34375 C 64.828125 -93.800781 67.863281 -86.632812 70.875 -76.84375 Z M 70.875 -76.84375 "/></g></g></g></svg>